<svg id="Calque_1" data-name="Calque 1" xmlns="http://www.w3.org/2000/svg" viewBox="0 0 100 100"><defs><style>.cls-1{fill:#ff6818;}.cls-2{fill:#fff;}</style></defs><circle class="cls-1" cx="50" cy="50" r="50"/><path class="cls-2" d="M90.359,50.857c-1.776-3.576-5.677-4.53-7.7-4.53H82.6l-30.192-.091L36.241,11.72l-.724-1.543L34.431,11.49,11.157,39.606C9.663,41.3,7.676,45.187,9.641,49.144a8.717,8.717,0,0,0,7.747,4.529l30.2.091L63.76,88.28l.723,1.543L65.57,88.51,88.844,60.394C90.337,58.706,92.324,54.814,90.359,50.857Zm-34.4,2.926,26.63.079a1.723,1.723,0,0,1,1.02.345c.139.28-.171.9-.439,1.229L66.262,75.858,55.922,53.79h.041ZM44.041,46.217,17.41,46.138a1.71,1.71,0,0,1-1.019-.346c-.137-.277.175-.9.443-1.232l0,0,16.9-20.415L44.078,46.21h-.041Z"/></svg>